<?xml version="1.0" encoding="UTF-8" standalone="no"?>
<svg
   height="16px"
   viewBox="0 0 16 16"
   width="16px"
   version="1.1"
   id="svg3"
   sodipodi:docname="missing-lyrics-symbolic.svg"
   inkscape:version="1.4 (e7c3feb100, 2024-10-09)"
   xmlns:inkscape="http://www.inkscape.org/namespaces/inkscape"
   xmlns:sodipodi="http://sodipodi.sourceforge.net/DTD/sodipodi-0.dtd"
   xmlns="http://www.w3.org/2000/svg"
   xmlns:svg="http://www.w3.org/2000/svg">
  <defs
     id="defs3" />
  <sodipodi:namedview
     id="namedview3"
     pagecolor="#ffffff"
     bordercolor="#000000"
     borderopacity="0.25"
     inkscape:showpageshadow="2"
     inkscape:pageopacity="0.0"
     inkscape:pagecheckerboard="0"
     inkscape:deskcolor="#d1d1d1"
     inkscape:zoom="16"
     inkscape:cx="-1.90625"
     inkscape:cy="7.78125"
     inkscape:window-width="1920"
     inkscape:window-height="1011"
     inkscape:window-x="0"
     inkscape:window-y="0"
     inkscape:window-maximized="1"
     inkscape:current-layer="g3"
     showgrid="false" />
  <g
     fill="#222222"
     id="g3"
     style="fill:#878787;fill-opacity:1">
    <path
       id="path1"
       style="display:inline;fill:#878787;fill-opacity:1"
       d="M 3 0 C 1.355469 0 0 1.355469 0 3 L 0 9 C 0 10.644531 1.355469 12 3 12 L 4 12 L 4 16 L 6.6289062 13.371094 C 6.2756465 13.017834 6.0546875 12.532274 6.0546875 12 C 6.0546875 11.5906 6.2752869 11.260628 6.4960938 10.945312 L 6.0546875 10.945312 L 6.0546875 10 L 3 10 C 2.429688 10 2 9.570312 2 9 L 2 3 C 2 2.429688 2.429688 2 3 2 L 13 2 C 13.570312 2 14 2.429688 14 3 L 14 9 C 14 9.570312 13.570312 10 13 10 L 9.9453125 10 L 9.9453125 10.945312 L 9.5039062 10.945312 C 9.7247131 11.260627 9.9453125 11.5906 9.9453125 12 L 13 12 C 14.644531 12 16 10.644531 16 9 L 16 3 C 16 1.355469 14.644531 0 13 0 L 3 0 z M 8 11.945312 C 7.962986 11.945312 7.9453125 11.96298 7.9453125 12 C 7.9453125 12.01851 7.9499395 12.031971 7.9589844 12.041016 L 8 12 L 8.0546875 12 C 8.0546875 11.96298 8.037015 11.945312 8 11.945312 z " />
    <path
       id="path2"
       style="display:inline;fill:#878787;fill-opacity:1"
       d="M 3 3 L 3 5 L 4.1875 5 C 4.3932037 4.219605 4.8333986 3.5210153 5.4453125 3 L 3 3 z M 10.560547 3 C 10.63903 3.0669398 10.715316 3.137191 10.789062 3.2109375 C 11.293557 3.7154328 11.638944 4.3364617 11.8125 5 L 12 5 L 12 3 L 10.560547 3 z M 7.875 3.9511719 C 7.6497706 3.9636017 7.4286704 4.0132784 7.21875 4.1015625 L 7.2148438 4.1035156 L 7.2128906 4.1035156 C 6.7861268 4.279593 6.4836513 4.6118101 6.265625 5 L 6.3769531 5 C 6.5849645 4.6550281 6.8718298 4.3633563 7.2597656 4.2050781 C 7.976358 3.9091718 8.8225263 4.0725244 9.375 4.625 C 9.4883874 4.738387 9.5840623 4.8655297 9.6640625 5 L 9.7949219 5 C 9.7040239 4.8357233 9.5896565 4.6834067 9.453125 4.546875 C 9.0870346 4.1807846 8.6036808 3.9751849 8.1074219 3.9511719 L 8.1035156 3.9511719 L 8.1015625 3.9511719 C 8.0259385 3.9471207 7.9500765 3.9470286 7.875 3.9511719 z " />
    <path
       id="path3"
       style="display:inline;fill:#878787;fill-opacity:1"
       d="M 3 6 L 3 8 L 6.0546875 8 C 6.0546875 7.5906 6.2752868 7.2606275 6.4960938 6.9453125 L 4.0546875 6.9453125 L 4.0546875 6 L 3 6 z M 7.9453125 6 L 7.9453125 6.078125 C 7.9664625 6.077425 7.978696 6.0546875 8 6.0546875 C 8.030719 6.0546875 8.038285 6.0485038 8.046875 6.0273438 L 8.0488281 6.0234375 L 8.0488281 6.0195312 C 8.0527826 6.0100373 8.0532135 6.0056066 8.0546875 6 L 7.9453125 6 z M 8.9882812 7.6425781 C 8.6912485 7.8209011 8.35774 7.9453125 8 7.9453125 C 7.962986 7.9453125 7.9453125 7.96298 7.9453125 8 L 8.4882812 8 L 8.6816406 7.9316406 C 8.8193681 7.8823046 8.8650981 7.7177081 8.9882812 7.6425781 z " />
    <path
       style="display:inline;fill:#212020;fill-opacity:1;paint-order:stroke fill markers"
       d="M -3.847656,7.007812 C -4.285156,6.984375 -4.730469,7.054688 -5.148438,7.230469 -6.265625,7.691406 -7,8.789062 -7,10 h 2 c 0,-0.40625 0.242188,-0.769531 0.617188,-0.921875 0.375,-0.15625 0.800781,-0.074219 1.089843,0.214844 0.289063,0.289062 0.371094,0.714843 0.214844,1.089843 C -3.230469,10.757812 -3.59375,11 -4,11 c -0.550781,0 -1,0.449219 -1,1 v 2 h 2 v -1.179688 c 0.785156,-0.28125 1.441406,-0.875 1.769531,-1.671874 C -0.765625,10.03125 -1.023438,8.734375 -1.878906,7.878906 -2.414062,7.34375 -3.121094,7.042969 -3.847656,7.007812 Z M -4,15 c -0.550781,0 -1,0.449219 -1,1 0,0.550781 0.449219,1 1,1 0.550781,0 1,-0.449219 1,-1 0,-0.550781 -0.449219,-1 -1,-1 z m 0,0"
       id="path10"
       transform="translate(12,-4)" />
  </g>
</svg>
