<?xml version="1.0" encoding="UTF-8" standalone="no"?>
<svg
   height="16px"
   viewBox="0 0 16 16"
   width="16px"
   version="1.1"
   id="svg1"
   sodipodi:docname="radio-symbolic.svg"
   inkscape:version="1.4 (e7c3feb100, 2024-10-09)"
   xmlns:inkscape="http://www.inkscape.org/namespaces/inkscape"
   xmlns:sodipodi="http://sodipodi.sourceforge.net/DTD/sodipodi-0.dtd"
   xmlns="http://www.w3.org/2000/svg"
   xmlns:svg="http://www.w3.org/2000/svg">
  <defs
     id="defs1">
    <inkscape:path-effect
       effect="fillet_chamfer"
       id="path-effect5"
       is_visible="true"
       lpeversion="1"
       nodesatellites_param="F,0,1,1,0,0.99716941,0,1 @ F,0,1,1,0,0.99716941,0,1 @ F,0,1,1,0,0.99716941,0,1 @ F,0,1,1,0,0.99716941,0,1 @ F,0,1,1,0,0.99716941,0,1 @ F,0,1,1,0,0.99716941,0,1 | F,0,1,1,0,0.99716941,0,1 @ F,0,0,1,0,0.99716941,0,1 @ F,0,1,1,0,0.99716941,0,1 @ F,0,1,1,0,0.99716941,0,1 @ F,0,1,1,0,0.99716941,0,1 @ F,0,1,1,0,0.99716941,0,1"
       radius="0"
       unit="px"
       method="auto"
       mode="F"
       chamfer_steps="1"
       flexible="false"
       use_knot_distance="true"
       apply_no_radius="true"
       apply_with_radius="true"
       only_selected="false"
       hide_knots="false" />
    <inkscape:path-effect
       effect="fillet_chamfer"
       id="path-effect4"
       is_visible="true"
       lpeversion="1"
       nodesatellites_param="F,0,0,1,0,1.0505658,0,1 @ F,0,0,1,0,1.0505658,0,1 @ F,0,0,1,0,0.82558906,0,1 @ F,0,0,1,0,1.2592686,0,1 @ F,0,0,1,0,1.0505658,0,1 @ F,0,0,1,0,1.333028,0,1 | F,0,0,1,0,0.79684337,0,1 @ F,0,0,1,0,1.2707349,0,1 @ F,0,0,1,0,1.0505658,0,1 @ F,0,0,1,0,1.2318478,0,1 @ F,0,0,1,0,1.0505658,0,1 @ F,0,0,1,0,1.0505658,0,1"
       radius="0"
       unit="px"
       method="auto"
       mode="F"
       chamfer_steps="1"
       flexible="false"
       use_knot_distance="true"
       apply_no_radius="true"
       apply_with_radius="true"
       only_selected="false"
       hide_knots="false" />
  </defs>
  <sodipodi:namedview
     id="namedview1"
     pagecolor="#ffffff"
     bordercolor="#000000"
     borderopacity="0.25"
     inkscape:showpageshadow="2"
     inkscape:pageopacity="0.0"
     inkscape:pagecheckerboard="0"
     inkscape:deskcolor="#d1d1d1"
     showgrid="true"
     inkscape:zoom="33.543378"
     inkscape:cx="4.7401308"
     inkscape:cy="9.0479856"
     inkscape:window-width="1920"
     inkscape:window-height="1011"
     inkscape:window-x="0"
     inkscape:window-y="0"
     inkscape:window-maximized="1"
     inkscape:current-layer="svg1">
    <inkscape:grid
       id="grid1"
       units="px"
       originx="0"
       originy="0"
       spacingx="1"
       spacingy="1"
       empcolor="#0099e5"
       empopacity="0.30196078"
       color="#0099e5"
       opacity="0.14901961"
       empspacing="5"
       enabled="true"
       visible="true" />
  </sodipodi:namedview>
  <g
     fill="#222222"
     id="g2">
    <path
       d="M 2.714844,2.171875 C 2.34375,2.195312 2.050781,2.59375 2.222656,2.980469 L 3.246094,5.285156 4.71875,4.71875 5.285156,3.25 2.980469,2.222656 C 2.890625,2.183594 2.800781,2.167969 2.714844,2.175781 Z m 10.558594,0.00391 C 13.1875,2.171875 13.101562,2.1875 13.019531,2.226562 L 10.714844,3.25 11.277344,4.71875 12.75,5.285156 13.773438,2.980469 C 13.871094,2.765625 13.824219,2.511719 13.65625,2.347656 13.554688,2.242188 13.414062,2.179688 13.273438,2.175781 Z M 12.75,10.714844 11.277344,11.28125 10.710938,12.75 l 2.308593,1.027344 c 0.480469,0.210937 0.96875,-0.28125 0.753907,-0.757813 z m -9.5,0 -1.027344,2.304687 c -0.210937,0.476563 0.28125,0.96875 0.757813,0.757813 L 5.285156,12.753906 4.71875,11.28125 Z m 0,0"
       id="path1" />
    <path
       d="M 8,0 C 7.765625,0 7.550781,0.144531 7.464844,0.367188 l -1.972656,5.128906 -5.125,1.972656 c -0.488282,0.1875 -0.488282,0.875 0,1.0625 l 5.125,1.972656 1.972656,5.128906 c 0.191406,0.488282 0.878906,0.488282 1.066406,0 l 1.972656,-5.128906 5.128906,-1.972656 c 0.488282,-0.1875 0.488282,-0.875 0,-1.0625 L 10.503906,5.496094 8.53125,0.367188 C 8.449219,0.148438 8.238281,0 8,0 Z M 8,7 C 8.550781,7 9,7.449219 9,8 9,8.550781 8.550781,9 8,9 7.449219,9 7,8.550781 7,8 7,7.449219 7.449219,7 8,7 Z m 0,0"
       id="path2" />
  </g>
</svg>
