<?xml version="1.0" encoding="UTF-8"?>
<svg height="128px" viewBox="0 0 128 128" width="128px" xmlns="http://www.w3.org/2000/svg" xmlns:xlink="http://www.w3.org/1999/xlink">
    <radialGradient id="a" cx="46.648582" cy="40.29863" gradientUnits="userSpaceOnUse" r="59.737305">
        <stop offset="0" stop-color="#77767b"/>
        <stop offset="1" stop-color="#5e5c64"/>
    </radialGradient>
    <radialGradient id="b" cx="44.983288" cy="191.711029" gradientTransform="matrix(0.151533 -0.260596 0.895414 0.520671 -130.046005 101.777649)" gradientUnits="userSpaceOnUse" r="54.976467">
        <stop offset="0.360827" stop-opacity="0"/>
        <stop offset="1"/>
    </radialGradient>
    <radialGradient id="c" cx="5.127315" cy="241.368423" gradientTransform="matrix(0.891249 -1.822329 0.570013 0.278777 -131.105835 186.060776)" gradientUnits="userSpaceOnUse" r="21.772156">
        <stop offset="0.471951" stop-opacity="0"/>
        <stop offset="1"/>
    </radialGradient>
    <radialGradient id="d" cx="67.313065" cy="205.6604" gradientTransform="matrix(0.392839 -0.239385 0.571993 0.938659 -86.223175 24.452122)" gradientUnits="userSpaceOnUse" r="41.681156">
        <stop offset="0.273153" stop-opacity="0"/>
        <stop offset="1"/>
    </radialGradient>
    <radialGradient id="e" cx="17.785316" cy="223.259094" gradientTransform="matrix(1.012354 -0.493176 0.244198 0.501271 -54.874493 110.542686)" gradientUnits="userSpaceOnUse" r="24.554377">
        <stop offset="0.423937" stop-opacity="0"/>
        <stop offset="1"/>
    </radialGradient>
    <linearGradient id="f" gradientUnits="userSpaceOnUse" x1="4.263672" x2="123.738281" y1="4.263672" y2="123.738281">
        <stop offset="0.222635" stop-color="#797979" stop-opacity="0"/>
        <stop offset="0.497127" stop-color="#ffffff" stop-opacity="0.478431"/>
        <stop offset="0.765555" stop-color="#5a5a5a" stop-opacity="0"/>
    </linearGradient>
    <path d="m 64 48.933594 c -9.425781 0 -17.066406 7.640625 -17.066406 17.066406 s 7.640625 17.066406 17.066406 17.066406 s 17.066406 -7.640625 17.066406 -17.066406 s -7.640625 -17.066406 -17.066406 -17.066406 z m -0.039062 15.976562 c 1.226562 0 2.21875 0.996094 2.21875 2.222656 c 0 1.226563 -0.992188 2.222657 -2.21875 2.222657 c -1.226563 0 -2.222657 -0.996094 -2.222657 -2.222657 c 0 -1.226562 0.996094 -2.222656 2.222657 -2.222656 z m 0 0" fill="#6ba9aa"/>
    <path d="m 64 6.261719 c -32.992188 0.003906 -59.734375 26.746093 -59.734375 59.738281 c -0.003906 32.992188 26.742187 59.738281 59.734375 59.738281 s 59.738281 -26.746093 59.738281 -59.738281 s -26.746093 -59.738281 -59.738281 -59.738281 z m 0 49.625 c 5.585938 0 10.113281 4.527343 10.109375 10.113281 c 0.003906 5.585938 -4.523437 10.113281 -10.109375 10.113281 s -10.113281 -4.527343 -10.109375 -10.113281 c -0.003906 -5.585938 4.523437 -10.113281 10.109375 -10.113281 z m 0 0"/>
    <path d="m 64 4.261719 c -32.992188 0.003906 -59.734375 26.746093 -59.734375 59.738281 c -0.003906 32.992188 26.742187 59.738281 59.734375 59.738281 s 59.738281 -26.746093 59.738281 -59.738281 s -26.746093 -59.738281 -59.738281 -59.738281 z m 0 49.625 c 5.585938 0 10.113281 4.527343 10.109375 10.113281 c 0.003906 5.585938 -4.523437 10.113281 -10.109375 10.113281 s -10.113281 -4.527343 -10.109375 -10.113281 c -0.003906 -5.585938 4.523437 -10.113281 10.109375 -10.113281 z m 0 0" fill="url(#a)"/>
    <g fill="none" stroke-width="3">
        <path d="m 54.082031 187.503906 c 5.019531 -0.980468 6.597657 -1.003906 9.917969 -1.003906 c 30.828125 0 49.503906 26.070312 49.503906 49.601562 c 0 25.355469 -20.34375 49.59375 -49.59375 49.59375 c -22.667968 0 -39.019531 -14.066406 -43.667968 -34.738281 c -5.988282 -26.652343 19.804687 -28.113281 23.496093 -18.957031 c 4.261719 -18.113281 -36.992187 -20.898438 -30.496093 18.867188 c 3.875 23.730468 25.257812 40.507812 50.757812 40.507812 c 32.734375 0 55.5 -27.125 55.5 -55.5 c -1.460938 -38.6875 -32.917969 -55.980469 -55.5 -55.371094 c -6.195312 0.164063 -13.847656 1.265625 -18.003906 3" stroke="url(#b)" stroke-linecap="round" stroke-linejoin="round" transform="matrix(1 0 0 1 0 -172)"/>
        <path d="m 11.046875 239.726562 c 0 -19.394531 8.039063 -33.449218 21.21875 -37.414062 c 11.753906 -3.535156 25.851563 7.21875 16.015625 20.035156 c 0.511719 -8.3125 -8.023438 -14.050781 -17.683594 -10.808594 c -7.0625 2.371094 -12.375 11.035157 -14.335937 16.394532" stroke="url(#c)" stroke-linecap="round" stroke-linejoin="round" transform="matrix(1 0 0 1 0 -172)"/>
        <path d="m 64 200.34375 c 19.851562 -0.273438 36.03125 16.945312 35.660156 35.65625 c -0.339844 17.066406 -12.511718 35.304688 -35.453125 35.449219 c -10.402343 0.066406 -20.304687 -5.378907 -25.378906 -11.710938 c -6.585937 -8.21875 -7.640625 -23.382812 4.589844 -16.066406 c 0.320312 -14.125 -23.976563 -11.671875 -15.210938 12.003906 c 5.308594 14.328125 19.449219 23.019531 35.792969 23.019531 c 23.582031 0 43.023438 -20.214843 42.695312 -42.695312 c -0.277343 -19.277344 -14.921874 -42.335938 -42.695312 -42.695312 c -1.128906 -0.015626 -2.652344 -0.085938 -5.382812 0.339843" stroke="url(#d)" stroke-linecap="round" stroke-linejoin="round" transform="matrix(1 0 0 1 0 -172)"/>
        <path d="m 13.738281 217.410156 c 11.066407 -26.980468 29.734375 -26.773437 38.046875 -21.78125 c 6.242188 3.753906 11.570313 11.476563 5.222656 20.421875" stroke="url(#e)" stroke-linecap="round" stroke-linejoin="round" transform="matrix(1 0 0 1 0 -172)"/>
    </g>
    <path d="m 64 4.261719 c -32.992188 0.003906 -59.734375 26.746093 -59.734375 59.738281 c -0.003906 32.992188 26.742187 59.738281 59.734375 59.738281 s 59.738281 -26.746093 59.738281 -59.738281 s -26.746093 -59.738281 -59.738281 -59.738281 z m 0 49.625 c 5.585938 0 10.113281 4.527343 10.109375 10.113281 c 0.003906 5.585938 -4.523437 10.113281 -10.109375 10.113281 s -10.113281 -4.527343 -10.109375 -10.113281 c -0.003906 -5.585938 4.523437 -10.113281 10.109375 -10.113281 z m 0 0" fill="url(#f)"/>
    <path d="m 64 46.933594 c -9.425781 0 -17.066406 7.640625 -17.066406 17.066406 s 7.640625 17.066406 17.066406 17.066406 s 17.066406 -7.640625 17.066406 -17.066406 s -7.640625 -17.066406 -17.066406 -17.066406 z m -0.039062 14.84375 c 1.226562 0 2.21875 0.996094 2.21875 2.222656 s -0.992188 2.222656 -2.21875 2.222656 c -1.226563 0 -2.222657 -0.996094 -2.222657 -2.222656 s 0.996094 -2.222656 2.222657 -2.222656 z m 0 0" fill="#8feaeb" stroke="#6e0000" stroke-linecap="round" stroke-linejoin="round" stroke-width="0.431909"/>
</svg>
