<?xml version="1.0" encoding="UTF-8"?>
<svg height="128px" viewBox="0 0 128 128" width="128px" xmlns="http://www.w3.org/2000/svg" xmlns:xlink="http://www.w3.org/1999/xlink">
    <radialGradient id="a" cx="46.648582" cy="40.29863" gradientUnits="userSpaceOnUse" r="59.737305">
        <stop offset="0" stop-color="#77767b"/>
        <stop offset="1" stop-color="#5e5c64"/>
    </radialGradient>
    <radialGradient id="b" cx="44.983288" cy="191.711029" gradientTransform="matrix(0.151533 -0.260596 0.895414 0.520671 -130.046005 101.777649)" gradientUnits="userSpaceOnUse" r="54.976467">
        <stop offset="0.360827" stop-opacity="0"/>
        <stop offset="1"/>
    </radialGradient>
    <radialGradient id="c" cx="5.127315" cy="241.368423" gradientTransform="matrix(0.891249 -1.822329 0.570013 0.278777 -131.105835 186.060776)" gradientUnits="userSpaceOnUse" r="21.772156">
        <stop offset="0.471951" stop-opacity="0"/>
        <stop offset="1"/>
    </radialGradient>
    <radialGradient id="d" cx="67.313065" cy="205.6604" gradientTransform="matrix(0.392839 -0.239385 0.571993 0.938659 -86.223175 24.452122)" gradientUnits="userSpaceOnUse" r="41.681156">
        <stop offset="0.273153" stop-opacity="0"/>
        <stop offset="1"/>
    </radialGradient>
    <radialGradient id="e" cx="17.785316" cy="223.259094" gradientTransform="matrix(1.012354 -0.493176 0.244198 0.501271 -54.874493 110.542686)" gradientUnits="userSpaceOnUse" r="24.554377">
        <stop offset="0.423937" stop-opacity="0"/>
        <stop offset="1"/>
    </radialGradient>
    <linearGradient id="f" gradientUnits="userSpaceOnUse" x1="4.263672" x2="123.738281" y1="4.263672" y2="123.738281">
        <stop offset="0.222635" stop-color="#797979" stop-opacity="0"/>
        <stop offset="0.497127" stop-color="#ffffff" stop-opacity="0.478431"/>
        <stop offset="0.765555" stop-color="#5a5a5a" stop-opacity="0"/>
    </linearGradient>
    <path d="m 64 48.933594 c -9.425781 0 -17.066406 7.640625 -17.066406 17.066406 s 7.640625 17.066406 17.066406 17.066406 s 17.066406 -7.640625 17.066406 -17.066406 s -7.640625 -17.066406 -17.066406 -17.066406 z m -0.039062 13.808594 c 2.421874 0 4.390624 1.964843 4.390624 4.390624 c 0 2.425782 -1.96875 4.390626 -4.390624 4.390626 c -2.425782 0 -4.390626 -1.964844 -4.390626 -4.390626 c 0 -2.425781 1.964844 -4.390624 4.390626 -4.390624 z m 0 0" fill="#6ba9aa"/>
    <path d="m 64 6.261719 c -32.992188 0.003906 -59.734375 26.746093 -59.734375 59.738281 c -0.003906 32.992188 26.742187 59.738281 59.734375 59.738281 s 59.738281 -26.746093 59.738281 -59.738281 s -26.746093 -59.738281 -59.738281 -59.738281 z m 0 49.625 c 5.585938 0 10.113281 4.527343 10.109375 10.113281 c 0.003906 5.585938 -4.523437 10.113281 -10.109375 10.113281 s -10.113281 -4.527343 -10.109375 -10.113281 c -0.003906 -5.585938 4.523437 -10.113281 10.109375 -10.113281 z m 0 0"/>
    <path d="m 64 4.261719 c -32.992188 0.003906 -59.734375 26.746093 -59.734375 59.738281 c -0.003906 32.992188 26.742187 59.738281 59.734375 59.738281 s 59.738281 -26.746093 59.738281 -59.738281 s -26.746093 -59.738281 -59.738281 -59.738281 z m 0 49.625 c 5.585938 0 10.113281 4.527343 10.109375 10.113281 c 0.003906 5.585938 -4.523437 10.113281 -10.109375 10.113281 s -10.113281 -4.527343 -10.109375 -10.113281 c -0.003906 -5.585938 4.523437 -10.113281 10.109375 -10.113281 z m 0 0" fill="url(#a)"/>
    <g fill="none" stroke-linecap="round" stroke-linejoin="round" stroke-width="3">
        <path d="m 54.816406 188.742188 c 4.890625 -0.957032 6.425782 -0.980469 9.664063 -0.980469 c 30.039062 0 48.234375 25.40625 48.234375 48.335937 c 0 24.707032 -19.820313 48.324219 -48.324219 48.324219 c -22.085937 0 -39.5 -12.792969 -44.148437 -33.464844 c -5.988282 -26.652343 19.804687 -28.113281 23.496093 -18.957031 c 4.261719 -18.113281 -36.992187 -20.898438 -30.496093 18.867188 c 3.875 23.730468 25.261718 40.503906 50.757812 40.503906 c 32.734375 0 55.496094 -27.125 55.496094 -55.496094 c -1.460938 -38.683594 -32.914063 -55.976562 -55.492188 -55.367188 c -6.199218 0.164063 -13.847656 1.265626 -18.007812 3" stroke="url(#b)" transform="matrix(1 0 0 1 0 -172)"/>
        <path d="m 11.046875 239.726562 c 0 -19.394531 8.039063 -33.449218 21.21875 -37.414062 c 11.753906 -3.535156 25.851563 7.21875 16.015625 20.035156 c 0.511719 -8.3125 -8.023438 -14.050781 -17.683594 -10.808594 c -7.0625 2.371094 -12.375 11.035157 -14.335937 16.394532" stroke="url(#c)" transform="matrix(1 0 0 1 0 -172)"/>
        <path d="m 64.851562 201.964844 c 18.945313 -0.257813 34.386719 16.175781 34.035157 34.035156 c -0.324219 16.289062 -11.941407 33.699219 -33.839844 33.835938 c -9.929687 0.0625 -21.144531 -3.765626 -26.21875 -10.097657 c -6.585937 -8.21875 -7.640625 -23.382812 4.589844 -16.066406 c 0.320312 -14.125 -23.976563 -11.671875 -15.210938 12.003906 c 5.308594 14.328125 21.042969 21.078125 36.640625 21.078125 c 22.507813 0 41.066406 -19.296875 40.753906 -40.753906 c -0.265624 -18.398438 -14.242187 -40.410156 -40.75 -40.75 c -1.078124 -0.015625 -2.535156 -0.082031 -5.140624 0.324219" stroke="url(#d)" transform="matrix(1 0 0 1 0 -172)"/>
        <path d="m 13.738281 217.410156 c 11.066407 -26.980468 28.042969 -26.765625 36.433594 -21.90625 c 5.839844 3.382813 10.269531 12.933594 6.835937 20.546875" stroke="url(#e)" transform="matrix(1 0 0 1 0 -172)"/>
    </g>
    <path d="m 64 4.261719 c -32.992188 0.003906 -59.734375 26.746093 -59.734375 59.738281 c -0.003906 32.992188 26.742187 59.738281 59.734375 59.738281 s 59.738281 -26.746093 59.738281 -59.738281 s -26.746093 -59.738281 -59.738281 -59.738281 z m 0 49.625 c 5.585938 0 10.113281 4.527343 10.109375 10.113281 c 0.003906 5.585938 -4.523437 10.113281 -10.109375 10.113281 s -10.113281 -4.527343 -10.109375 -10.113281 c -0.003906 -5.585938 4.523437 -10.113281 10.109375 -10.113281 z m 0 0" fill="url(#f)"/>
    <path d="m 64 46.933594 c -9.425781 0 -17.066406 7.640625 -17.066406 17.066406 s 7.640625 17.066406 17.066406 17.066406 s 17.066406 -7.640625 17.066406 -17.066406 s -7.640625 -17.066406 -17.066406 -17.066406 z m -0.039062 12.585937 c 2.472656 0 4.476562 2.007813 4.476562 4.480469 s -2.003906 4.480469 -4.476562 4.480469 c -2.476563 0 -4.480469 -2.007813 -4.480469 -4.480469 s 2.003906 -4.480469 4.480469 -4.480469 z m 0 0" fill="#8feaeb"/>
</svg>
