<?xml version="1.0" encoding="UTF-8"?>
<svg height="128px" viewBox="0 0 128 128" width="128px" xmlns="http://www.w3.org/2000/svg" xmlns:xlink="http://www.w3.org/1999/xlink">
    <linearGradient id="a" gradientUnits="userSpaceOnUse">
        <stop offset="0" stop-opacity="0"/>
        <stop offset="1"/>
    </linearGradient>
    <linearGradient id="b" x1="83.52578073503" x2="119.50005298871" xlink:href="#a" y1="183.90665594469" y2="235.87430826297"/>
    <linearGradient id="c" gradientTransform="matrix(0.99546 0 0 0.935406 -13.419985 161.387833)" x1="91.526497" x2="127.501129" xlink:href="#a" y1="27.905531" y2="79.873703"/>
    <linearGradient id="d" gradientUnits="userSpaceOnUse">
        <stop offset="0"/>
        <stop offset="1" stop-opacity="0"/>
    </linearGradient>
    <linearGradient id="e" gradientTransform="matrix(-1 0 0 0.939672 145.726242 160.459488)" x1="93.728607" x2="123.70462" xlink:href="#d" y1="30.427227" y2="60.612297"/>
    <linearGradient id="f" gradientTransform="matrix(-0.830085 0 0 0.780008 128.638489 173.294922)" x1="93.728607" x2="120.133423" xlink:href="#d" y1="30.427227" y2="52.627014"/>
    <linearGradient id="g" gradientTransform="matrix(-0.488031 0 0 0.458589 91.859718 191.969254)" x1="93.728607" x2="117.247887" xlink:href="#d" y1="30.427227" y2="48.319508"/>
    <linearGradient id="h" x1="81.066353" x2="77.483925" xlink:href="#d" y1="234.46936" y2="191.414673"/>
    <linearGradient id="i" x1="78.54581694728" x2="75.594756058" xlink:href="#d" y1="234.9036779936" y2="199.43694903048"/>
    <path d="m 64 4.261719 c -32.992188 0.003906 -59.734375 26.746093 -59.734375 59.738281 c -0.003906 32.992188 26.742187 59.738281 59.734375 59.738281 s 59.738281 -26.746093 59.738281 -59.738281 s -26.746093 -59.738281 -59.738281 -59.738281 z m 0 49.625 c 5.585938 0 10.113281 4.527343 10.109375 10.113281 c 0.003906 5.585938 -4.523437 10.113281 -10.109375 10.113281 s -10.113281 -4.527343 -10.109375 -10.113281 c -0.003906 -5.585938 4.523437 -10.113281 10.109375 -10.113281 z m 0 0" fill="#797979"/>
    <path d="m 64 46.933594 c -9.425781 0 -17.066406 7.640625 -17.066406 17.066406 s 7.640625 17.066406 17.066406 17.066406 s 17.066406 -7.640625 17.066406 -17.066406 s -7.640625 -17.066406 -17.066406 -17.066406 z m 0 15.648437 c 0.785156 0 1.417969 0.632813 1.417969 1.417969 s -0.632813 1.417969 -1.417969 1.417969 s -1.417969 -0.632813 -1.417969 -1.417969 s 0.632813 -1.417969 1.417969 -1.417969 z m 0 0" fill="#8feaeb"/>
    <g fill="none" stroke-linecap="round" stroke-linejoin="round">
        <path d="m 119.5 63.875 c 0 6.042969 -0.964844 11.859375 -2.75 17.308594 m 0 0 c -7.273438 22.175781 -28.140625 38.191406 -52.75 38.191406 c -30.652344 0 -52.933594 -24.726562 -52.324219 -55.375 c 0.59375 -29.875 30.308594 -28.808594 34.332031 -10.996094" stroke="#000000" stroke-width="0.99999"/>
        <path d="m 83.527344 183.90625 c 2.710937 1.019531 5.382812 2.269531 7.992187 3.761719 c 16.714844 9.5625 27.980469 27.570312 27.980469 48.207031" stroke="url(#b)" stroke-width="0.99999" transform="matrix(1 0 0 1 0 -172)"/>
        <path d="m 77.691406 187.492188 c 2.699219 0.949218 5.359375 2.121093 7.957032 3.515624 c 16.640624 8.945313 27.855468 25.789063 27.855468 45.09375" stroke="url(#c)" stroke-width="0.99546" transform="matrix(1 0 0 1 0 -172)"/>
        <path d="m 113.503906 64.101562 c 0 5.402344 -0.863281 10.597657 -2.460937 15.464844 m 0 0 c -6.496094 19.816406 -25.144531 34.128906 -47.132813 34.128906 c -27.386718 0 -47.292968 -22.097656 -46.75 -49.480468 c 0.527344 -26.695313 23.734375 -19.21875 24.910156 -7.488282" stroke="#000000" stroke-width="0.99546"/>
        <path d="m 59.199219 214.664062 c 9.300781 -10.976562 -4.121094 -23.058593 -15.875 -19.523437 c -13.183594 3.964844 -25.097657 20.980469 -25.097657 40.375" stroke="url(#e)" transform="matrix(1 0 0 1 0 -172)"/>
        <path d="m 52.640625 215.628906 c 7.773437 -4.507812 0.753906 -16.476562 -9.007813 -13.542968 c -10.941406 3.285156 -20.832031 17.414062 -20.832031 33.511718" stroke="url(#f)" transform="matrix(1 0 0 1 0 -172)"/>
        <path d="m 47.179688 216.859375 c 4.570312 -2.652344 0.441406 -9.6875 -5.296876 -7.964844 c -6.433593 1.933594 -12.246093 10.238281 -12.246093 19.703125" stroke="url(#g)" transform="matrix(1 0 0 1 0 -172)"/>
        <path d="m 76.523438 195.171875 c 17.46875 5.351563 30.171874 21.605469 30.171874 40.828125 c 0 23.582031 -19.113281 42.695312 -42.695312 42.695312 c -16.34375 0 -29.394531 -9.257812 -36.191406 -22.941406 c -4.121094 -8.296875 -4.960938 -17.726562 -1.535156 -22.574218 c 3.363281 -4.757813 13.511718 -5.40625 17.257812 3.753906" stroke="url(#h)" transform="matrix(1 0 0 1 0 -172)"/>
        <path d="m 74.804688 202.53125 c 14.390624 4.410156 24.855468 17.800781 24.855468 33.632812 c 0 19.425782 -15.75 35.171876 -35.171875 35.171876 c -6.15625 0 -12.242187 0.269531 -22.453125 -8.457032 c -11.144531 -9.523437 -9.59375 -25.0625 1.21875 -21.761718" stroke="url(#i)" transform="matrix(1 0 0 1 0 -172)"/>
    </g>
</svg>
